# xmcd CD database file
#
# Track frame offsets:
#	150
#	16352
#	35854
#	51231
#	72008
#	87985
#	104937
#	114764
#	129841
#	143493
#	160820
#	177022
#	191574
#	204776
#	211603
#	229530
#
# Disc length: 3282 seconds
#
# Revision: 0
# Processed by: cddbd v1.4PL0 Copyright (c) Steve Scherf et al.
# Submitted via: NeoAudio 1.5.6
#
DISCID=cd0cd010
DTITLE=Mirabela Dauer - Fotoliul Din Odaie
DYEAR=2003
DGENRE=Blues
TTITLE0=Multumesc Iubita Mama
TTITLE1=Frunza Mea Albastra
TTITLE2=De Ce Nu Imi Spui Ca Ma Iubesti
TTITLE3=Insingurare
TTITLE4=Ioane,Ioane
TTITLE5=Mai Treci Mama Pe La Noi
TTITLE6=Morarita
TTITLE7=Tu Esti Steaua Mea De Dor
TTITLE8=Veniti Privigetoarea Cinta
TTITLE9=Suflet Trist
TTITLE10=E Bine,E Bine
TTITLE11=In Ochii Tai Visam
TTITLE12=O Zi Fara Iubire
TTITLE13=Revino
TTITLE14=Te Iubesc Iubirea Mea
TTITLE15=Te Astept Sa Vii
EXTD=YEAR: 2003
EXTT0=
EXTT1=
EXTT2=
EXTT3=
EXTT4=
EXTT5=
EXTT6=
EXTT7=
EXTT8=
EXTT9=
EXTT10=
EXTT11=
EXTT12=
EXTT13=
EXTT14=
EXTT15=
PLAYORDER=
